# xmcd
#
# Track frame offsets: 
#        150
#        30309
#        42403
#        55280
#        70474
#        82732
#        94163
#        106572
#        122341
#        136442
#        151174
#        164398
#        177560
#        190409
#        203909
#        217078
#        228811
#
# Disc length: 3210 seconds
#
# Revision: 1
# Processed by: cddbd v1.5.2PL0 Copyright (c) Steve Scherf et al.
# Submitted via: ExactAudioCopy v0.99pb5
#
DISCID=e10c8811
DTITLE=Bill Davison - Quadromania [CD2]
DYEAR=2005
DGENRE=Jazz
TTITLE0=Weary Blues (3 False Starts And Complete Take)
TTITLE1=I Don't Stand A Ghost Of A Chance With You
TTITLE2=A Monday Âate
TTITLE3=Jazz Üe Blues
TTITLE4=Little Girl
TTITLE5=Squeeze Me
TTITLE6=Sensation Rag
TTITLE7=I'm Ñonfessin' That I Love You
TTITLE8=Big Butter And Egg Man
TTITLE9=I Wish I Could Shimmy Like My Sister Kate
TTITLE10=Who's Sorry Now?
TTITLE11=Someday Sweetheart
TTITLE12=On The Alamo
TTITLE13=Wrap You Troubles In Dreams
TTITLE14=Wabash Blues
TTITLE15=I'm Coming Virginia
TTITLE16=Wabash Blues
EXTD=
EXTT0=
EXTT1=
EXTT2=
EXTT3=
EXTT4=
EXTT5=
EXTT6=
EXTT7=
EXTT8=
EXTT9=
EXTT10=
EXTT11=
EXTT12=
EXTT13=
EXTT14=
EXTT15=
EXTT16=
PLAYORDER=
